PathFileType	4	(X/Y/Z)	Run_200 02
DataRate	CameraRate	NumFrames	NumMarkers	Units	OrigDataRate	OrigDataStartFrame	OrigNumFrames
100	100	5	45	mm	100	31	137
Frame#	Time	RASI			LPSI			RTH1			RTH2			RTH3			LTH1			LTH2			LTH3			RTB1			RTB2			RTB3			RLMAL			RMMAL			LTB1			LTB2			LTB3			RCAL			RTOE			RMT5			LCAL			LTOE			LMT5			LACR			RACR			CLAV			C7			LPSH			RUA1			RUA2			RUA3			RLEL			RMEL			LUA1			LUA2			LUA3			LLEL			LMEL			RFAsuperior			RFAradius			LFAsuperior			LFAradius			LFAulna			LASI			RFAulna			RPSI			
		X1	Y1	Z1	X2	Y2	Z2	X3	Y3	Z3	X4	Y4	Z4	X5	Y5	Z5	X6	Y6	Z6	X7	Y7	Z7	X8	Y8	Z8	X9	Y9	Z9	X10	Y10	Z10	X11	Y11	Z11	X12	Y12	Z12	X13	Y13	Z13	X14	Y14	Z14	X15	Y15	Z15	X16	Y16	Z16	X17	Y17	Z17	X18	Y18	Z18	X19	Y19	Z19	X20	Y20	Z20	X21	Y21	Z21	X22	Y22	Z22	X23	Y23	Z23	X24	Y24	Z24	X25	Y25	Z25	X26	Y26	Z26	X27	Y27	Z27	X28	Y28	Z28	X29	Y29	Z29	X30	Y30	Z30	X31	Y31	Z31	X32	Y32	Z32	X33	Y33	Z33	X34	Y34	Z34	X35	Y35	Z35	X36	Y36	Z36	X37	Y37	Z37	X38	Y38	Z38	X39	Y39	Z39	X40	Y40	Z40	X41	Y41	Z41	X42	Y42	Z42	X43	Y43	Z43	X44	Y44	Z44	X45	Y45	Z45	

28	0.47	1026.01895	1077.12401	-380.600211	846.776786	1115.54344	-534.138097	907.143333	822.496629	-327.026682	963.9811120000001	744.20019	-364.03892	876.200539	656.529329	-355.083004	950.140786	862.008225	-662.079294	1058.4303	781.4896680000001	-664.137911	1036.199098	671.541503	-653.19934	836.636489	406.077149	-404.97442	777.082107	372.46236	-359.543879	734.988183	252.38415	-404.752506	647.324054	169.791065	-384.157763	668.578513	181.788921	-466.411423	1090.475497	442.766141	-628.334689	982.484223	362.798876	-645.121384	1029.221415	261.217402	-611.173443	577.304585	172.307875	-441.475265	760.244479	63.824098	-438.230093	705.553703	63.755659	-362.33003	902.625188	126.946336	-558.367102	1122.924067	97.531052	-595.333593	1058.214892	81.124638	-658.042546	971.922789	1590.241934	-654.82041	1021.460161	1559.502576	-349.224512	1067.908489	1495.756143	-492.382196	968.510765	1603.195964	-495.080984	885.490696	1566.287094	-645.545944	992.862307	1407.798795	-258.973587	913.902777	1356.826589	-249.993743	932.785508	1299.332934	-215.178498	955.038084	1233.483597	-202.340394	893.733698	1224.252884	-272.218437	849.8528260000001	1507.476788	-705.345007	775.967389	1453.431649	-672.716527	756.232536	1418.153702	-736.943036	725.6024159999999	1346.343137	-763.403922	713.664933	1337.324686	-673.527361	1002.913949	1201.508574	-255.537773	1118.172738	1293.684557	-391.406419	785.345684	1273.063561	-737.72419	957.943353	1285.193284	-705.505815	941.06684	1219.35134	-712.039803	1006.257414	1080.750108	-611.208831	1133.873595	1228.216071	-384.281555	854.259578	1114.184168	-445.013367	
29	0.48	1028.185025	1081.57232	-382.085202	849.171368	1120.041111	-535.147706	905.192676	827.125077	-327.204168	960.170101	748.114459	-363.116191	870.477725	662.1780209999999	-354.069354	950.175016	866.248878	-662.6924760000001	1056.535949	784.414133	-665.328444	1032.363295	674.269703	-652.883022	827.230439	411.662837	-401.670529	766.10526	379.398592	-357.199704	724.318574	258.764225	-402.290294	635.611275	176.595755	-382.955333	659.021099	187.81505	-464.499094	1095.240755	445.26505	-629.921963	994.100961	357.059612	-646.7582650000001	1048.598424	259.410442	-612.18613	567.735217	183.108915	-441.238655	741.948443	63.721029	-437.740366	687.831248	65.322194	-362.289474	932.360799	115.814917	-559.388302	1154.639646	102.607652	-594.734909	1091.71408	80.959535	-657.614027	972.648049	1594.436102	-656.515035	1024.136066	1564.285737	-351.888989	1069.655706	1500.074252	-494.760978	970.433015	1607.172332	-497.112185	886.250412	1571.338923	-645.778094	996.216382	1413.285673	-261.257378	917.344032	1362.500708	-251.233072	936.366426	1305.09645	-216.561805	959.0147040000001	1238.85946	-204.04919	896.151325	1229.919752	-272.946499	848.917337	1513.656098	-704.023628	775.789229	1460.801008	-668.336402	753.099122	1425.995788	-731.706085	720.3533640000001	1354.265529	-757.166956	711.433552	1345.360407	-667.054384	1005.889388	1207.974891	-258.763464	1117.119529	1302.948109	-395.956957	780.850539	1280.985243	-733.19474	954.513457	1293.292157	-706.835795	937.488059	1227.358509	-711.857545	1007.931237	1085.603853	-612.814109	1133.360675	1237.5413	-390.598715	856.774946	1118.093699	-446.116784	
30	0.49	1030.468633	1085.502626	-383.458027	851.77107	1123.906239	-536.042048	903.730996	831.644626	-327.526159	957.275791	751.630556	-362.442599	865.996255	667.321154	-353.610546	950.179289	869.674938	-663.194544	1053.91706	786.068341	-666.308989	1028.187099	676.187919	-653.150775	819.1163309999999	416.802844	-398.886577	756.445526	385.996755	-355.287772	714.4474279999999	264.912772	-400.219396	624.618995	183.50732	-381.746218	649.977898	193.710101	-462.577753	1099.416039	447.293794	-631.098864	1005.530585	351.733586	-648.408499	1066.960432	258.460224	-612.818622	559.005952	194.132357	-440.808843	724.146208	64.18364699999999	-437.349919	670.49427	67.757626	-362.145184	961.070562	106.497796	-560.316102	1184.233429	109.652565	-593.4325260000001	1123.696471	82.94052000000001	-656.712772	973.566926	1597.964275	-658.24917	1026.566688	1568.39255	-354.714177	1071.181355	1503.687641	-497.142102	972.210312	1610.571722	-499.239053	887.223619	1575.833786	-646.275962	999.235824	1418.344029	-263.476518	920.573901	1367.734636	-252.331298	939.682644	1310.301067	-217.901713	962.38625	1243.780786	-205.714277	898.068128	1235.165179	-273.550346	848.44049	1518.910587	-703.004105	776.022892	1467.13464	-664.3951499999999	750.77496	1432.565754	-726.761036	716.065613	1360.894232	-751.021449	710.05351	1352.202005	-660.853909	1008.232222	1213.511991	-261.573954	1116.201411	1310.205291	-400.157	777.247715	1287.608337	-728.76044	951.752716	1300.06608	-708.0664839999999	934.631098	1234.091184	-711.568278	1009.660537	1089.909392	-614.381673	1132.678605	1244.854824	-396.042607	859.348388	1121.339714	-447.250129	
31	0.5	1032.763807	1088.725744	-384.68364	854.514712	1126.926706	-536.8958270000001	902.858854	835.55457	-328.203027	955.426816	754.539046	-362.109513	863.107344	671.612024	-353.791868	950.037816	872.283101	-663.692262	1050.950343	786.589865	-667.179396	1024.03845	677.068886	-654.429121	812.548064	421.282541	-397.081577	748.515492	392.086963	-354.055993	705.403001	270.802472	-398.657535	614.30943	190.691445	-380.53906	641.07741	199.763091	-460.825387	1103.131059	448.809152	-631.821313	1016.467514	347.072962	-649.803623	1083.772394	258.253606	-612.908475	550.811073	205.334939	-440.008052	706.760477	65.19167299999999	-437.009526	653.708753	71.278532	-362.045765	987.879969	99.136189	-560.8496689999999	1210.719201	118.388974	-591.435537	1153.06203	86.902458	-655.189386	974.572994	1600.770024	-660.1383520000001	1028.664211	1571.718736	-357.667947	1072.473104	1506.528524	-499.571539	973.705158	1613.219238	-501.479525	888.3045980000001	1579.597033	-647.084475	1001.944879	1422.708672	-265.686558	923.504327	1372.408515	-253.283426	942.653487	1314.822633	-219.181969	965.148146	1248.108913	-207.201127	899.605768	1239.774645	-274.052539	848.313922	1523.198131	-702.263245	776.613165	1472.250713	-660.9082560000001	749.08901	1437.787174	-722.26953	712.693492	1366.097398	-745.2090909999999	709.3849300000001	1357.729271	-655.004924	1010.006617	1217.989235	-263.862827	1115.453724	1315.336722	-403.945439	774.521348	1292.804239	-724.564027	949.629311	1305.46905	-709.217839	932.488369	1239.483404	-711.139379	1011.471423	1093.402146	-615.753088	1131.913568	1250.017576	-400.52173	861.900168	1123.939001	-448.290575	
32	0.51	1034.939788	1091.090411	-385.726549	857.239991	1128.921879	-537.746676	902.832311	838.2365610000001	-329.338279	954.760934	756.63541	-362.244475	862.095025	674.629035	-354.588611	949.691635	874.014141	-664.307293	1048.104196	786.155875	-668.194357	1020.128991	676.7371900000001	-656.502466	807.724382	424.818215	-396.457178	742.5971050000001	397.47043	-353.56402	697.3191420000001	276.332348	-397.589293	604.724946	198.164507	-379.381209	632.307194	206.027419	-459.362063	1106.394099	449.871464	-632.439472	1026.378276	343.217101	-650.745439	1098.562831	258.615524	-612.627343	543.084129	216.587239	-438.833449	689.9080269999999	66.79062399999999	-436.679809	637.588343	75.846321	-361.975114	1011.972165	93.79385600000001	-560.672876	1233.343698	127.843359	-588.97968	1178.763678	91.868386	-653.082259	975.536708	1602.769135	-662.2335859999999	1030.370817	1574.192847	-360.648847	1073.537363	1508.549646	-502.076244	974.846167	1614.969662	-503.878082	889.370966	1582.460432	-648.2288579999999	1004.305741	1426.163784	-267.903403	925.987978	1376.379621	-254.14366	945.163717	1318.602322	-220.348985	967.29054	1251.692264	-208.399918	900.820747	1243.555194	-274.402685	848.423657	1526.431435	-701.855202	777.533746	1476.040583	-657.9394	747.929887	1441.608339	-718.313139	710.178265	1369.769168	-739.921144	709.347222	1361.820714	-649.633774	1011.253298	1221.303846	-265.577377	1114.892581	1318.273437	-407.276063	772.666287	1296.496513	-720.713444	948.132791	1309.47375	-710.351618	931.0758489999999	1243.477593	-710.647742	1013.374747	1095.818173	-616.804816	1131.131587	1252.920617	-404.074856	864.411689	1125.922656	-449.086263	
